<svg width="19" height="18" viewBox="0 0 19 18" fill="none" xmlns="http://www.w3.org/2000/svg">
<path d="M0.818176 2.45241C0.818176 1.31763 1.7381 0.397705 2.87288 0.397705H5.95493C7.08971 0.397705 8.00963 1.31763 8.00963 2.45241V5.53446C8.00963 6.66924 7.08971 7.58916 5.95493 7.58916H2.87288C1.7381 7.58916 0.818176 6.66924 0.818176 5.53446V2.45241Z" fill="white"/>
<path d="M0.818176 11.6986C0.818176 10.5638 1.7381 9.64386 2.87288 9.64386H5.95493C7.08971 9.64386 8.00963 10.5638 8.00963 11.6986V14.7806C8.00963 15.9154 7.08971 16.8353 5.95493 16.8353H2.87288C1.7381 16.8353 0.818176 15.9154 0.818176 14.7806V11.6986Z" fill="white"/>
<path d="M10.0643 2.45241C10.0643 1.31763 10.9843 0.397705 12.119 0.397705H15.2011C16.3359 0.397705 17.2558 1.31763 17.2558 2.45241V5.53446C17.2558 6.66924 16.3359 7.58916 15.2011 7.58916H12.119C10.9843 7.58916 10.0643 6.66924 10.0643 5.53446V2.45241Z" fill="white"/>
<path d="M10.0643 11.6986C10.0643 10.5638 10.9843 9.64386 12.119 9.64386H16.2284C17.3632 9.64386 18.2831 10.5638 18.2831 11.6986V15.808C18.2831 16.9427 17.3632 17.8627 16.2284 17.8627H12.119C10.9843 17.8627 10.0643 16.9427 10.0643 15.808V11.6986Z" fill="white"/>
</svg>
