<svg width="19" height="18" viewBox="0 0 19 18" fill="none" xmlns="http://www.w3.org/2000/svg">
<path d="M2.88713 11.0163H0.878769V10.2863C0.867718 9.26265 1.13881 8.25576 1.6623 7.37606C2.1858 6.49636 2.94147 5.77784 3.84642 5.29931C4.7379 4.85976 5.7034 4.58991 6.6936 4.50356C6.26093 5.03893 5.82704 5.60788 5.39193 6.21041C4.41192 7.73249 3.57348 9.34119 2.88713 11.0163ZM12.2551 13.0699C10.7332 14.0512 9.12447 14.8909 7.4492 15.5784V17.5868H8.17925C9.20287 17.5978 10.2098 17.3267 11.0895 16.8032C11.9692 16.2797 12.6877 15.5241 13.1662 14.6191C13.6058 13.7276 13.8756 12.7621 13.962 11.7719C13.429 12.2026 12.8601 12.6353 12.2551 13.0699ZM18.3999 2.24917C18.3028 5.42707 16.0149 8.57869 11.4046 11.8858C10.15 12.6991 8.82648 13.4007 7.4492 13.9825V13.5715C7.44594 12.8948 7.17569 12.2468 6.69721 11.7683C6.21872 11.2898 5.5707 11.0196 4.89403 11.0163H4.48302C5.06552 9.63906 5.76811 8.31573 6.58264 7.06165C9.88172 2.4587 13.0282 0.170724 16.201 0.0655975C17.7823 0.0655975 18.3999 0.71169 18.3999 2.24917ZM14.0196 6.27101C14.0196 5.78696 13.8273 5.32273 13.4851 4.98045C13.1428 4.63818 12.6786 4.44589 12.1945 4.44589C11.7105 4.44589 11.2462 4.63818 10.904 4.98045C10.5617 5.32273 10.3694 5.78696 10.3694 6.27101C10.3694 6.75506 10.5617 7.21929 10.904 7.56156C11.2462 7.90384 11.7105 8.09613 12.1945 8.09613C12.6786 8.09613 13.1428 7.90384 13.4851 7.56156C13.8273 7.21929 14.0196 6.75506 14.0196 6.27101ZM1.88186 17.4298C2.70389 17.2838 4.68597 16.8764 5.34812 16.215C5.55152 16.0116 5.71285 15.7701 5.82293 15.5044C5.933 15.2387 5.98966 14.9538 5.98966 14.6662C5.98966 14.3786 5.933 14.0937 5.82293 13.828C5.71285 13.5623 5.55152 13.3208 5.34812 13.1174C5.14473 12.914 4.90327 12.7527 4.63753 12.6426C4.37179 12.5325 4.08697 12.4759 3.79933 12.4759C3.21842 12.4759 2.6613 12.7066 2.25053 13.1174C1.58911 13.7796 1.18101 15.7616 1.03573 16.5837L0.855408 17.6101L1.88186 17.4298Z" fill="white"/>
</svg>
