<svg width="19" height="19" viewBox="0 0 19 19" fill="none" xmlns="http://www.w3.org/2000/svg">
<g clip-path="url(#clip0_1_854)">
<path d="M10.2424 4.77563H8.85632C8.4887 4.77563 8.13614 4.93141 7.8762 5.20868C7.61625 5.48596 7.47021 5.86202 7.47021 6.25415V16.6269C7.47021 17.4307 8.12183 18.0823 8.92563 18.0823H10.1731C10.9769 18.0823 11.6285 17.4307 11.6285 16.6269V6.25415C11.6285 5.86202 11.4825 5.48596 11.2226 5.20868C10.9626 4.93141 10.61 4.77563 10.2424 4.77563Z" fill="white"/>
<path d="M16.8952 0.617188H15.5091C15.1415 0.617188 14.7889 0.770525 14.529 1.04347C14.269 1.31641 14.123 1.6866 14.123 2.0726V16.6267C14.123 17.4305 14.7746 18.0821 15.5784 18.0821H16.8259C17.6297 18.0821 18.2813 17.4305 18.2813 16.6267V2.0726C18.2813 1.6866 18.1353 1.31641 17.8753 1.04347C17.6154 0.770525 17.2628 0.617188 16.8952 0.617188Z" fill="white"/>
<path d="M3.58862 8.93384H2.20251C1.8349 8.93384 1.48233 9.09448 1.22239 9.38042C0.962442 9.66636 0.816406 10.0542 0.816406 10.4586L0.816406 16.6267C0.816406 17.4305 1.46802 18.0821 2.27182 18.0821H3.51932C4.32312 18.0821 4.97473 17.4305 4.97473 16.6267V10.4586C4.97473 10.0542 4.82869 9.66636 4.56875 9.38042C4.3088 9.09448 3.95624 8.93384 3.58862 8.93384Z" fill="white"/>
</g>
<defs>
<clipPath id="clip0_1_854">
<rect width="17.465" height="17.465" fill="white" transform="translate(0.817078 0.617432)"/>
</clipPath>
</defs>
</svg>
