<svg width="19" height="19" viewBox="0 0 19 19" fill="none" xmlns="http://www.w3.org/2000/svg">
<path d="M18.2831 9.57568C18.2831 14.3985 14.3735 18.3082 9.55065 18.3082C4.72784 18.3082 0.818176 14.3985 0.818176 9.57568C0.818176 4.75286 4.72784 0.843201 9.55065 0.843201C14.3735 0.843201 18.2831 4.75286 18.2831 9.57568Z" fill="white"/>
<path d="M10.5209 6.66485C10.5209 6.12898 10.0865 5.69458 9.55065 5.69458C9.01479 5.69458 8.58038 6.12898 8.58038 6.66485V8.6054H6.63983C6.10396 8.6054 5.66955 9.03981 5.66955 9.57568C5.66955 10.1115 6.10396 10.546 6.63983 10.546H8.58038V12.4865C8.58038 13.0224 9.01479 13.4568 9.55065 13.4568C10.0865 13.4568 10.5209 13.0224 10.5209 12.4865V10.546H12.4615C12.9973 10.546 13.4318 10.1115 13.4318 9.57568C13.4318 9.03981 12.9973 8.6054 12.4615 8.6054H10.5209V6.66485Z" fill="#206ECF"/>
</svg>
