<svg width="18" height="19" viewBox="0 0 18 19" fill="none" xmlns="http://www.w3.org/2000/svg">
<g clip-path="url(#clip0_280_458)">
<path d="M9 0.828125C7.21997 0.828125 5.47991 1.35597 3.99987 2.3449C2.51983 3.33383 1.36628 4.73944 0.685088 6.38398C0.00389957 8.02851 -0.17433 9.83811 0.172937 11.5839C0.520204 13.3298 1.37737 14.9334 2.63604 16.1921C3.89472 17.4508 5.49836 18.3079 7.24419 18.6552C8.99002 19.0025 10.7996 18.8242 12.4442 18.143C14.0887 17.4619 15.4943 16.3083 16.4832 14.8283C17.4722 13.3482 18 11.6082 18 9.82813C17.9974 7.44197 17.0484 5.15428 15.3611 3.46701C13.6738 1.77975 11.3862 0.830706 9 0.828125V0.828125ZM11.4165 6.07813H6.5835C7.22008 4.82133 8.03389 3.66249 9 2.63713C9.96648 3.6622 10.7803 4.82109 11.4165 6.07813ZM12.0165 7.57813C12.247 8.30613 12.3673 9.06452 12.3735 9.82813C12.3673 10.5917 12.247 11.3501 12.0165 12.0781H5.982C5.75149 11.3501 5.63116 10.5917 5.625 9.82813C5.63116 9.06452 5.75149 8.30613 5.982 7.57813H12.0165ZM7.05 2.59513C6.18575 3.65246 5.47244 4.82465 4.9305 6.07813H2.51475C3.50915 4.36545 5.13875 3.11394 7.05 2.59513ZM1.5 9.82813C1.49994 9.06489 1.61653 8.30613 1.84575 7.57813H4.425C4.23057 8.31248 4.12977 9.06848 4.125 9.82813C4.12977 10.5878 4.23057 11.3438 4.425 12.0781H1.84575C1.61653 11.3501 1.49994 10.5914 1.5 9.82813ZM2.51475 13.5781H4.9305C5.47244 14.8316 6.18575 16.0038 7.05 17.0611C5.13875 16.5423 3.50915 15.2908 2.51475 13.5781ZM6.5835 13.5781H11.4165C10.7799 14.8349 9.96612 15.9938 9 17.0191C8.03353 15.994 7.21968 14.8352 6.5835 13.5781ZM10.9538 17.0611C11.8167 16.0036 12.5287 14.8314 13.0695 13.5781H15.4853C14.4917 15.29 12.8636 16.5414 10.9538 17.0611ZM16.5 9.82813C16.5001 10.5914 16.3835 11.3501 16.1543 12.0781H13.575C13.7694 11.3438 13.8702 10.5878 13.875 9.82813C13.8702 9.06848 13.7694 8.31248 13.575 7.57813H16.1528C16.3825 8.30605 16.4996 9.06481 16.5 9.82813ZM13.0695 6.07813C12.5287 4.82486 11.8167 3.65269 10.9538 2.59513C12.8636 3.11482 14.4917 4.36623 15.4853 6.07813H13.0695Z" fill="white"/>
</g>
<defs>
<clipPath id="clip0_280_458">
<rect width="18" height="18" fill="white" transform="translate(0 0.828125)"/>
</clipPath>
</defs>
</svg>
