<?xml version="1.0" encoding="UTF-8" standalone="no"?>
<svg
   width="427.18378"
   height="241.56891"
   viewBox="0 0 427.18378 241.56891"
   fill="none"
   version="1.1"
   id="svg241"
   sodipodi:docname="Video.svg"
   inkscape:version="1.1.2 (b8e25be833, 2022-02-05)"
   xmlns:inkscape="http://www.inkscape.org/namespaces/inkscape"
   xmlns:sodipodi="http://sodipodi.sourceforge.net/DTD/sodipodi-0.dtd"
   xmlns="http://www.w3.org/2000/svg"
   xmlns:svg="http://www.w3.org/2000/svg">
  <sodipodi:namedview
     id="namedview243"
     pagecolor="#ffffff"
     bordercolor="#666666"
     borderopacity="1.0"
     inkscape:pageshadow="2"
     inkscape:pageopacity="0.0"
     inkscape:pagecheckerboard="0"
     showgrid="false"
     inkscape:zoom="1.5458739"
     inkscape:cx="19.72994"
     inkscape:cy="107.38263"
     inkscape:window-width="1920"
     inkscape:window-height="970"
     inkscape:window-x="-12"
     inkscape:window-y="-12"
     inkscape:window-maximized="1"
     inkscape:current-layer="svg241" />
  <defs
     id="defs239">
    <filter
       id="filter0_d_1_1147"
       x="26.8281"
       y="1709.16"
       width="379.37601"
       height="236.384"
       filterUnits="userSpaceOnUse"
       color-interpolation-filters="sRGB">
      <feFlood
         flood-opacity="0"
         result="BackgroundImageFix"
         id="feFlood164" />
      <feColorMatrix
         in="SourceAlpha"
         type="matrix"
         values="0 0 0 0 0 0 0 0 0 0 0 0 0 0 0 0 0 0 127 0"
         result="hardAlpha"
         id="feColorMatrix166" />
      <feOffset
         dy="2.97569"
         id="feOffset168" />
      <feGaussianBlur
         stdDeviation="5.95139"
         id="feGaussianBlur170" />
      <feColorMatrix
         type="matrix"
         values="0 0 0 0 0 0 0 0 0 0 0 0 0 0 0 0 0 0 0.08 0"
         id="feColorMatrix172" />
      <feBlend
         mode="normal"
         in2="BackgroundImageFix"
         result="effect1_dropShadow_1_1147"
         id="feBlend174" />
      <feBlend
         mode="normal"
         in="SourceGraphic"
         in2="effect1_dropShadow_1_1147"
         result="shape"
         id="feBlend176" />
    </filter>
    <filter
       id="filter1_d_1_1147"
       x="0.097220398"
       y="1795.0699"
       width="188.806"
       height="73.805603"
       filterUnits="userSpaceOnUse"
       color-interpolation-filters="sRGB">
      <feFlood
         flood-opacity="0"
         result="BackgroundImageFix"
         id="feFlood179" />
      <feColorMatrix
         in="SourceAlpha"
         type="matrix"
         values="0 0 0 0 0 0 0 0 0 0 0 0 0 0 0 0 0 0 127 0"
         result="hardAlpha"
         id="feColorMatrix181" />
      <feOffset
         dy="2.97569"
         id="feOffset183" />
      <feGaussianBlur
         stdDeviation="5.95139"
         id="feGaussianBlur185" />
      <feColorMatrix
         type="matrix"
         values="0 0 0 0 0 0 0 0 0 0 0 0 0 0 0 0 0 0 0.08 0"
         id="feColorMatrix187" />
      <feBlend
         mode="normal"
         in2="BackgroundImageFix"
         result="effect1_dropShadow_1_1147"
         id="feBlend189" />
      <feBlend
         mode="normal"
         in="SourceGraphic"
         in2="effect1_dropShadow_1_1147"
         result="shape"
         id="feBlend191" />
    </filter>
    <filter
       id="filter2_d_1_1147"
       x="0.097220398"
       y="1854.0699"
       width="188.806"
       height="73.805603"
       filterUnits="userSpaceOnUse"
       color-interpolation-filters="sRGB">
      <feFlood
         flood-opacity="0"
         result="BackgroundImageFix"
         id="feFlood194" />
      <feColorMatrix
         in="SourceAlpha"
         type="matrix"
         values="0 0 0 0 0 0 0 0 0 0 0 0 0 0 0 0 0 0 127 0"
         result="hardAlpha"
         id="feColorMatrix196" />
      <feOffset
         dy="2.97569"
         id="feOffset198" />
      <feGaussianBlur
         stdDeviation="5.95139"
         id="feGaussianBlur200" />
      <feColorMatrix
         type="matrix"
         values="0 0 0 0 0 0 0 0 0 0 0 0 0 0 0 0 0 0 0.08 0"
         id="feColorMatrix202" />
      <feBlend
         mode="normal"
         in2="BackgroundImageFix"
         result="effect1_dropShadow_1_1147"
         id="feBlend204" />
      <feBlend
         mode="normal"
         in="SourceGraphic"
         in2="effect1_dropShadow_1_1147"
         result="shape"
         id="feBlend206" />
    </filter>
    <filter
       id="filter3_d_1_1147"
       x="190.116"
       y="1730.09"
       width="231.767"
       height="106.798"
       filterUnits="userSpaceOnUse"
       color-interpolation-filters="sRGB">
      <feFlood
         flood-opacity="0"
         result="BackgroundImageFix"
         id="feFlood209" />
      <feColorMatrix
         in="SourceAlpha"
         type="matrix"
         values="0 0 0 0 0 0 0 0 0 0 0 0 0 0 0 0 0 0 127 0"
         result="hardAlpha"
         id="feColorMatrix211" />
      <feOffset
         dy="2.97091"
         id="feOffset213" />
      <feGaussianBlur
         stdDeviation="5.94181"
         id="feGaussianBlur215" />
      <feColorMatrix
         type="matrix"
         values="0 0 0 0 0 0 0 0 0 0 0 0 0 0 0 0 0 0 0.08 0"
         id="feColorMatrix217" />
      <feBlend
         mode="normal"
         in2="BackgroundImageFix"
         result="effect1_dropShadow_1_1147"
         id="feBlend219" />
      <feBlend
         mode="normal"
         in="SourceGraphic"
         in2="effect1_dropShadow_1_1147"
         result="shape"
         id="feBlend221" />
    </filter>
    <filter
       id="filter4_d_1_1147"
       x="203.099"
       y="1866.3199"
       width="224.18201"
       height="84.408997"
       filterUnits="userSpaceOnUse"
       color-interpolation-filters="sRGB">
      <feFlood
         flood-opacity="0"
         result="BackgroundImageFix"
         id="feFlood224" />
      <feColorMatrix
         in="SourceAlpha"
         type="matrix"
         values="0 0 0 0 0 0 0 0 0 0 0 0 0 0 0 0 0 0 127 0"
         result="hardAlpha"
         id="feColorMatrix226" />
      <feOffset
         dy="4.22516"
         id="feOffset228" />
      <feGaussianBlur
         stdDeviation="8.45033"
         id="feGaussianBlur230" />
      <feColorMatrix
         type="matrix"
         values="0 0 0 0 0 0 0 0 0 0 0 0 0 0 0 0 0 0 0.08 0"
         id="feColorMatrix232" />
      <feBlend
         mode="normal"
         in2="BackgroundImageFix"
         result="effect1_dropShadow_1_1147"
         id="feBlend234" />
      <feBlend
         mode="normal"
         in="SourceGraphic"
         in2="effect1_dropShadow_1_1147"
         result="shape"
         id="feBlend236" />
    </filter>
    <filter
       id="filter0_d_1_1147-0"
       x="26.8281"
       y="1709.16"
       width="379.37601"
       height="236.384"
       filterUnits="userSpaceOnUse"
       color-interpolation-filters="sRGB">
      <feFlood
         flood-opacity="0"
         result="BackgroundImageFix"
         id="feFlood164-0" />
      <feColorMatrix
         in="SourceAlpha"
         type="matrix"
         values="0 0 0 0 0 0 0 0 0 0 0 0 0 0 0 0 0 0 127 0"
         result="hardAlpha"
         id="feColorMatrix166-3" />
      <feOffset
         dy="2.97569"
         id="feOffset168-9" />
      <feGaussianBlur
         stdDeviation="5.95139"
         id="feGaussianBlur170-1" />
      <feColorMatrix
         type="matrix"
         values="0 0 0 0 0 0 0 0 0 0 0 0 0 0 0 0 0 0 0.08 0"
         id="feColorMatrix172-2" />
      <feBlend
         mode="normal"
         in2="BackgroundImageFix"
         result="effect1_dropShadow_1_1147"
         id="feBlend174-7" />
      <feBlend
         mode="normal"
         in="SourceGraphic"
         in2="effect1_dropShadow_1_1147"
         result="shape"
         id="feBlend176-1" />
    </filter>
    <filter
       id="filter1_d_1_1147-2"
       x="0.097220398"
       y="1795.0699"
       width="188.806"
       height="73.805603"
       filterUnits="userSpaceOnUse"
       color-interpolation-filters="sRGB">
      <feFlood
         flood-opacity="0"
         result="BackgroundImageFix"
         id="feFlood179-6" />
      <feColorMatrix
         in="SourceAlpha"
         type="matrix"
         values="0 0 0 0 0 0 0 0 0 0 0 0 0 0 0 0 0 0 127 0"
         result="hardAlpha"
         id="feColorMatrix181-7" />
      <feOffset
         dy="2.97569"
         id="feOffset183-0" />
      <feGaussianBlur
         stdDeviation="5.95139"
         id="feGaussianBlur185-1" />
      <feColorMatrix
         type="matrix"
         values="0 0 0 0 0 0 0 0 0 0 0 0 0 0 0 0 0 0 0.08 0"
         id="feColorMatrix187-7" />
      <feBlend
         mode="normal"
         in2="BackgroundImageFix"
         result="effect1_dropShadow_1_1147"
         id="feBlend189-7" />
      <feBlend
         mode="normal"
         in="SourceGraphic"
         in2="effect1_dropShadow_1_1147"
         result="shape"
         id="feBlend191-7" />
    </filter>
    <filter
       id="filter2_d_1_1147-7"
       x="0.097220398"
       y="1854.0699"
       width="188.806"
       height="73.805603"
       filterUnits="userSpaceOnUse"
       color-interpolation-filters="sRGB">
      <feFlood
         flood-opacity="0"
         result="BackgroundImageFix"
         id="feFlood194-8" />
      <feColorMatrix
         in="SourceAlpha"
         type="matrix"
         values="0 0 0 0 0 0 0 0 0 0 0 0 0 0 0 0 0 0 127 0"
         result="hardAlpha"
         id="feColorMatrix196-7" />
      <feOffset
         dy="2.97569"
         id="feOffset198-2" />
      <feGaussianBlur
         stdDeviation="5.95139"
         id="feGaussianBlur200-4" />
      <feColorMatrix
         type="matrix"
         values="0 0 0 0 0 0 0 0 0 0 0 0 0 0 0 0 0 0 0.08 0"
         id="feColorMatrix202-8" />
      <feBlend
         mode="normal"
         in2="BackgroundImageFix"
         result="effect1_dropShadow_1_1147"
         id="feBlend204-8" />
      <feBlend
         mode="normal"
         in="SourceGraphic"
         in2="effect1_dropShadow_1_1147"
         result="shape"
         id="feBlend206-6" />
    </filter>
    <filter
       id="filter3_d_1_1147-1"
       x="190.116"
       y="1730.09"
       width="231.767"
       height="106.798"
       filterUnits="userSpaceOnUse"
       color-interpolation-filters="sRGB">
      <feFlood
         flood-opacity="0"
         result="BackgroundImageFix"
         id="feFlood209-8" />
      <feColorMatrix
         in="SourceAlpha"
         type="matrix"
         values="0 0 0 0 0 0 0 0 0 0 0 0 0 0 0 0 0 0 127 0"
         result="hardAlpha"
         id="feColorMatrix211-9" />
      <feOffset
         dy="2.97091"
         id="feOffset213-7" />
      <feGaussianBlur
         stdDeviation="5.94181"
         id="feGaussianBlur215-9" />
      <feColorMatrix
         type="matrix"
         values="0 0 0 0 0 0 0 0 0 0 0 0 0 0 0 0 0 0 0.08 0"
         id="feColorMatrix217-0" />
      <feBlend
         mode="normal"
         in2="BackgroundImageFix"
         result="effect1_dropShadow_1_1147"
         id="feBlend219-2" />
      <feBlend
         mode="normal"
         in="SourceGraphic"
         in2="effect1_dropShadow_1_1147"
         result="shape"
         id="feBlend221-8" />
    </filter>
    <filter
       id="filter4_d_1_1147-8"
       x="203.099"
       y="1866.3199"
       width="224.18201"
       height="84.408997"
       filterUnits="userSpaceOnUse"
       color-interpolation-filters="sRGB">
      <feFlood
         flood-opacity="0"
         result="BackgroundImageFix"
         id="feFlood224-5" />
      <feColorMatrix
         in="SourceAlpha"
         type="matrix"
         values="0 0 0 0 0 0 0 0 0 0 0 0 0 0 0 0 0 0 127 0"
         result="hardAlpha"
         id="feColorMatrix226-4" />
      <feOffset
         dy="4.22516"
         id="feOffset228-5" />
      <feGaussianBlur
         stdDeviation="8.45033"
         id="feGaussianBlur230-5" />
      <feColorMatrix
         type="matrix"
         values="0 0 0 0 0 0 0 0 0 0 0 0 0 0 0 0 0 0 0.08 0"
         id="feColorMatrix232-2" />
      <feBlend
         mode="normal"
         in2="BackgroundImageFix"
         result="effect1_dropShadow_1_1147"
         id="feBlend234-7" />
      <feBlend
         mode="normal"
         in="SourceGraphic"
         in2="effect1_dropShadow_1_1147"
         result="shape"
         id="feBlend236-4" />
    </filter>
  </defs>
  <g
     filter="url(#filter0_d_1_1147)"
     id="g4"
     style="opacity:0.98;filter:url(#filter0_d_1_1147-0)"
     transform="translate(4.4309627,-1700.1036)">
    <rect
       x="38.7309"
       y="1718.09"
       width="355.57001"
       height="212.578"
       rx="5.9513898"
       fill="#ffffff"
       id="rect2" />
  </g>
  <rect
     x="200.90097"
     y="44.186348"
     width="189.451"
     height="79.555"
     rx="5.2074699"
     fill="#ffffff"
     stroke="#f5f7fc"
     stroke-width="1.48785"
     id="rect6"
     style="opacity:0.98" />
  <rect
     x="67.668365"
     y="43.33625"
     width="123.259"
     height="48.1562"
     rx="5.2074699"
     fill="#ffffff"
     stroke="#f5f7fc"
     stroke-width="1.48785"
     id="rect8"
     style="opacity:0.98" />
  <rect
     x="78.804764"
     y="76.11628"
     width="29.701599"
     height="5.94031"
     rx="2.97016"
     fill="#e1e7ee"
     id="rect10"
     style="opacity:0.98" />
  <rect
     x="150.93797"
     y="50.656319"
     width="9.7590904"
     height="33.944599"
     rx="2.9756899"
     fill="#f0f3f9"
     id="rect12"
     style="opacity:0.98" />
  <rect
     x="163.24297"
     y="61.266304"
     width="8.91047"
     height="23.761299"
     rx="2.9756899"
     fill="#f0f3f9"
     id="rect14"
     style="opacity:0.98" />
  <rect
     x="175.12297"
     y="76.11628"
     width="8.91047"
     height="8.91047"
     rx="2.9756899"
     fill="#f0f3f9"
     id="rect16"
     style="opacity:0.98" />
  <rect
     x="67.668365"
     y="116.74628"
     width="123.259"
     height="48.1562"
     rx="5.2074699"
     fill="#ffffff"
     stroke="#f5f7fc"
     stroke-width="1.48785"
     id="rect18"
     style="opacity:0.98" />
  <rect
     x="78.804764"
     y="149.51631"
     width="29.701599"
     height="5.94031"
     rx="2.97016"
     fill="#e1e7ee"
     id="rect20"
     style="opacity:0.98" />
  <rect
     x="150.93797"
     y="124.06635"
     width="9.7590904"
     height="33.944599"
     rx="2.9756899"
     fill="#f0f3f9"
     id="rect22"
     style="opacity:0.98" />
  <rect
     x="163.24297"
     y="134.66634"
     width="8.91047"
     height="23.761299"
     rx="2.9756899"
     fill="#f0f3f9"
     id="rect24"
     style="opacity:0.98" />
  <rect
     x="175.12297"
     y="149.51631"
     width="8.91047"
     height="8.91047"
     rx="2.9756899"
     fill="#f0f3f9"
     id="rect26"
     style="opacity:0.98" />
  <rect
     x="68.092369"
     y="190.14632"
     width="122.834"
     height="37.972801"
     rx="5.2074699"
     fill="#ffffff"
     stroke="#f5f7fc"
     stroke-width="1.48785"
     id="rect28"
     style="opacity:0.98" />
  <rect
     x="78.804459"
     y="216.98628"
     width="29.701599"
     height="5.94031"
     rx="2.97016"
     fill="#e1e7ee"
     id="rect30"
     style="opacity:0.98" />
  <rect
     x="150.93797"
     y="191.52632"
     width="9.7590904"
     height="34.368999"
     rx="2.9756899"
     fill="#f0f3f9"
     id="rect32"
     style="opacity:0.98" />
  <rect
     x="163.66696"
     y="202.13631"
     width="8.91047"
     height="23.761299"
     rx="2.9756899"
     fill="#f0f3f9"
     id="rect34"
     style="opacity:0.98" />
  <rect
     x="175.54697"
     y="216.98628"
     width="8.91047"
     height="8.91047"
     rx="2.9756899"
     fill="#f0f3f9"
     id="rect36"
     style="opacity:0.98" />
  <rect
     x="211.18896"
     y="179.22627"
     width="18.6696"
     height="14.8508"
     rx="2.9756899"
     fill="#ebf0f6"
     id="rect38"
     style="opacity:0.98" />
  <rect
     x="235.79797"
     y="170.31635"
     width="19.5182"
     height="23.761299"
     rx="2.9756899"
     fill="#ebf0f6"
     id="rect40"
     style="opacity:0.98" />
  <rect
     x="260.832"
     y="158.42635"
     width="19.5182"
     height="35.641899"
     rx="2.9756899"
     fill="#ebf0f6"
     id="rect42"
     style="opacity:0.98" />
  <rect
     x="285.44199"
     y="146.54634"
     width="19.5182"
     height="47.522499"
     rx="2.9756899"
     fill="#ebf0f6"
     id="rect44"
     style="opacity:0.98" />
  <rect
     x="310.05301"
     y="134.66634"
     width="19.5182"
     height="59.403099"
     rx="2.9756899"
     fill="#ebf0f6"
     id="rect46"
     style="opacity:0.98" />
  <rect
     x="335.51099"
     y="158.42635"
     width="19.5182"
     height="35.641899"
     rx="2.9756899"
     fill="#ebf0f6"
     id="rect48"
     style="opacity:0.98" />
  <rect
     x="360.54401"
     y="170.31635"
     width="19.5182"
     height="23.761299"
     rx="2.9756899"
     fill="#ebf0f6"
     id="rect50"
     style="opacity:0.98" />
  <path
     d="m 43.430963,22.136311 c 0,-2.34 1.8997,-4.24 4.2431,-4.24 H 394.12696 c 2.929,0 5.304,2.37 5.304,5.3 v 5.7 H 43.430963 Z"
     fill="#edf1f7"
     id="path52"
     style="opacity:0.98" />
  <circle
     cx="49.314861"
     cy="23.286325"
     r="2.3336899"
     fill="#dce3eb"
     id="circle54"
     style="opacity:0.98" />
  <circle
     cx="56.529263"
     cy="23.286325"
     r="2.3336899"
     fill="#dce3eb"
     id="circle56"
     style="opacity:0.98" />
  <circle
     cx="64.166367"
     cy="23.286325"
     r="2.3336899"
     fill="#dce3eb"
     id="circle58"
     style="opacity:0.98" />
  <circle
     cx="201.64297"
     cy="23.286325"
     r="2.3336899"
     fill="#dce3eb"
     id="circle60"
     style="opacity:0.98" />
  <rect
     x="206.95197"
     y="21.806345"
     width="35.641899"
     height="2.97016"
     rx="1.48508"
     fill="#dce3eb"
     id="rect62"
     style="opacity:0.98" />
  <rect
     x="43.430962"
     y="27.896311"
     width="356"
     height="203"
     fill="#000000"
     fill-opacity="0.03"
     id="rect64"
     style="opacity:0.98" />
  <g
     filter="url(#filter1_d_1_1147)"
     id="g82"
     style="opacity:0.98;filter:url(#filter1_d_1_1147-2)"
     transform="translate(4.4309627,-1700.1036)">
    <rect
       x="12.7439"
       y="1804.74"
       width="163.51199"
       height="48.512199"
       rx="5.2074699"
       fill="#ffffff"
       stroke="#f5f7fc"
       stroke-width="1.48785"
       id="rect66" />
    <rect
       x="27.699301"
       y="1837.74"
       width="25.4585"
       height="5.94031"
       rx="2.97016"
       fill="#e1e7ee"
       id="rect68" />
    <rect
       x="102.803"
       y="1829.26"
       width="8.91047"
       height="19.093901"
       rx="2.9756899"
       fill="#f0f3f9"
       id="rect70" />
    <rect
       x="114.683"
       y="1836.05"
       width="8.91047"
       height="12.7292"
       rx="2.9756899"
       fill="#f0f3f9"
       id="rect72" />
    <rect
       x="126.562"
       y="1817.38"
       width="8.91047"
       height="30.974501"
       rx="2.9756899"
       fill="#f0f3f9"
       id="rect74" />
    <rect
       x="138.444"
       y="1824.17"
       width="8.91047"
       height="24.6099"
       rx="2.9756899"
       fill="#f0f3f9"
       id="rect76" />
    <rect
       x="150.32401"
       y="1836.05"
       width="8.91047"
       height="12.7292"
       rx="2.9756899"
       fill="#f0f3f9"
       id="rect78" />
    <rect
       x="162.205"
       y="1829.26"
       width="8.91047"
       height="19.093901"
       rx="2.9756899"
       fill="#f0f3f9"
       id="rect80" />
  </g>
  <rect
     x="155.43097"
     y="122.89631"
     width="119"
     height="33"
     rx="9.4628496"
     fill="#206ecf"
     id="rect84"
     style="opacity:0.98" />
  <path
     d="m 185.78296,137.97632 -5.736,-3.42 c -0.173,-0.1 -0.371,-0.16 -0.574,-0.16 -0.203,0 -0.403,0.04 -0.58,0.14 -0.177,0.1 -0.323,0.24 -0.424,0.41 -0.101,0.16 -0.153,0.36 -0.151,0.55 v 6.81 c 0,0.29 0.12,0.57 0.332,0.77 0.212,0.21 0.5,0.32 0.801,0.32 0.209,0 0.415,-0.05 0.596,-0.15 l 5.736,-3.41 c 0.163,-0.09 0.299,-0.23 0.392,-0.39 0.094,-0.16 0.143,-0.34 0.143,-0.53 0,-0.18 -0.049,-0.37 -0.143,-0.53 -0.093,-0.16 -0.229,-0.29 -0.392,-0.39 z"
     fill="#ffffff"
     id="path86"
     style="opacity:0.98" />
  <path
     d="m 202.06596,135.76632 -1.853,6.63 h -1.568 l -1.245,-4.72 -1.302,4.72 -1.559,0.01 -1.786,-6.64 h 1.425 l 1.169,5.15 1.35,-5.15 h 1.482 l 1.273,5.12 1.179,-5.12 z m 0.526,3.98 c 0,-0.53 0.105,-1.01 0.314,-1.42 0.215,-0.41 0.504,-0.73 0.865,-0.95 0.367,-0.22 0.776,-0.33 1.226,-0.33 0.393,0 0.735,0.08 1.026,0.24 0.298,0.16 0.535,0.36 0.713,0.6 v -0.75 h 1.34 v 5.26 h -1.34 v -0.77 c -0.171,0.25 -0.409,0.45 -0.713,0.62 -0.298,0.16 -0.643,0.24 -1.036,0.24 -0.443,0 -0.849,-0.12 -1.216,-0.35 -0.361,-0.22 -0.65,-0.54 -0.865,-0.96 -0.209,-0.41 -0.314,-0.89 -0.314,-1.43 z m 4.144,0.02 c 0,-0.33 -0.064,-0.6 -0.19,-0.83 -0.127,-0.23 -0.298,-0.41 -0.513,-0.53 -0.216,-0.13 -0.447,-0.19 -0.694,-0.19 -0.247,0 -0.475,0.06 -0.684,0.18 -0.209,0.12 -0.38,0.3 -0.514,0.53 -0.126,0.23 -0.19,0.5 -0.19,0.82 0,0.32 0.064,0.59 0.19,0.83 0.134,0.24 0.305,0.42 0.514,0.55 0.215,0.12 0.443,0.19 0.684,0.19 0.247,0 0.478,-0.06 0.694,-0.18 0.215,-0.13 0.386,-0.31 0.513,-0.54 0.126,-0.23 0.19,-0.51 0.19,-0.83 z m 4.188,-1.54 v 2.54 c 0,0.18 0.041,0.31 0.124,0.39 0.088,0.08 0.234,0.12 0.437,0.12 h 0.618 v 1.12 h -0.837 c -1.121,0 -1.682,-0.54 -1.682,-1.63 v -2.54 h -0.627 v -1.09 h 0.627 v -1.31 h 1.34 v 1.31 h 1.179 v 1.09 z m 1.793,1.54 c 0,-0.55 0.111,-1.02 0.333,-1.43 0.222,-0.41 0.529,-0.73 0.922,-0.95 0.393,-0.23 0.842,-0.34 1.349,-0.34 0.653,0 1.191,0.16 1.616,0.49 0.431,0.33 0.719,0.78 0.865,1.37 h -1.435 c -0.076,-0.23 -0.206,-0.4 -0.39,-0.53 -0.177,-0.13 -0.399,-0.2 -0.665,-0.2 -0.38,0 -0.681,0.14 -0.903,0.42 -0.222,0.27 -0.333,0.66 -0.333,1.17 0,0.5 0.111,0.89 0.333,1.17 0.222,0.27 0.523,0.41 0.903,0.41 0.538,0 0.89,-0.25 1.055,-0.73 h 1.435 c -0.146,0.57 -0.434,1.03 -0.865,1.36 -0.431,0.34 -0.969,0.51 -1.616,0.51 -0.507,0 -0.956,-0.12 -1.349,-0.34 -0.393,-0.23 -0.7,-0.54 -0.922,-0.95 -0.222,-0.41 -0.333,-0.89 -0.333,-1.43 z m 9.024,-2.71 c 0.399,0 0.754,0.09 1.065,0.27 0.31,0.17 0.551,0.42 0.722,0.77 0.177,0.33 0.266,0.74 0.266,1.21 v 3.09 h -1.33 v -2.91 c 0,-0.42 -0.105,-0.74 -0.314,-0.96 -0.209,-0.23 -0.494,-0.34 -0.855,-0.34 -0.368,0 -0.659,0.11 -0.875,0.34 -0.209,0.22 -0.313,0.54 -0.313,0.96 v 2.91 h -1.331 v -7.03 h 1.331 v 2.42 c 0.171,-0.23 0.399,-0.4 0.684,-0.53 0.285,-0.13 0.602,-0.2 0.95,-0.2 z m 11.541,-1.29 -2.433,6.63 h -1.615 l -2.433,-6.63 h 1.425 l 1.825,5.27 1.815,-5.27 z m 1.472,0.74 c -0.234,0 -0.43,-0.07 -0.589,-0.22 -0.152,-0.15 -0.228,-0.34 -0.228,-0.56 0,-0.22 0.076,-0.41 0.228,-0.55 0.159,-0.15 0.355,-0.23 0.589,-0.23 0.235,0 0.428,0.08 0.58,0.23 0.159,0.14 0.238,0.33 0.238,0.55 0,0.22 -0.079,0.41 -0.238,0.56 -0.152,0.15 -0.345,0.22 -0.58,0.22 z m 0.656,0.63 v 5.26 h -1.33 v -5.26 z m 0.973,2.61 c 0,-0.53 0.104,-1.01 0.313,-1.42 0.216,-0.41 0.507,-0.73 0.874,-0.95 0.368,-0.22 0.777,-0.33 1.226,-0.33 0.343,0 0.669,0.08 0.979,0.23 0.311,0.14 0.558,0.34 0.741,0.59 v -2.5 h 1.35 v 7.03 h -1.35 v -0.78 c -0.164,0.26 -0.396,0.47 -0.693,0.63 -0.298,0.16 -0.643,0.24 -1.036,0.24 -0.444,0 -0.849,-0.12 -1.217,-0.35 -0.367,-0.22 -0.658,-0.54 -0.874,-0.96 -0.209,-0.41 -0.313,-0.89 -0.313,-1.43 z m 4.143,0.02 c 0,-0.33 -0.063,-0.6 -0.19,-0.83 -0.127,-0.23 -0.298,-0.41 -0.513,-0.53 -0.216,-0.13 -0.447,-0.19 -0.694,-0.19 -0.247,0 -0.475,0.06 -0.684,0.18 -0.209,0.12 -0.38,0.3 -0.513,0.53 -0.127,0.23 -0.19,0.5 -0.19,0.82 0,0.32 0.063,0.59 0.19,0.83 0.133,0.24 0.304,0.42 0.513,0.55 0.215,0.12 0.443,0.19 0.684,0.19 0.247,0 0.478,-0.06 0.694,-0.18 0.215,-0.13 0.386,-0.31 0.513,-0.54 0.127,-0.23 0.19,-0.51 0.19,-0.83 z m 7.533,-0.12 c 0,0.19 -0.012,0.36 -0.038,0.52 h -3.848 c 0.031,0.38 0.164,0.67 0.399,0.89 0.234,0.22 0.522,0.32 0.865,0.32 0.494,0 0.845,-0.21 1.054,-0.63 h 1.435 c -0.152,0.5 -0.443,0.92 -0.874,1.25 -0.431,0.32 -0.96,0.49 -1.587,0.49 -0.507,0 -0.963,-0.12 -1.368,-0.34 -0.399,-0.23 -0.713,-0.55 -0.941,-0.96 -0.222,-0.41 -0.333,-0.88 -0.333,-1.42 0,-0.55 0.111,-1.03 0.333,-1.44 0.222,-0.41 0.532,-0.73 0.931,-0.95 0.399,-0.22 0.859,-0.33 1.378,-0.33 0.501,0 0.947,0.11 1.34,0.32 0.399,0.22 0.706,0.53 0.922,0.92 0.222,0.4 0.332,0.85 0.332,1.36 z m -1.377,-0.38 c -0.007,-0.34 -0.13,-0.61 -0.371,-0.81 -0.241,-0.21 -0.535,-0.32 -0.884,-0.32 -0.329,0 -0.608,0.1 -0.836,0.31 -0.222,0.19 -0.358,0.47 -0.409,0.82 z m 4.686,3.22 c -0.506,0 -0.963,-0.12 -1.368,-0.34 -0.406,-0.23 -0.726,-0.55 -0.96,-0.96 -0.228,-0.41 -0.342,-0.88 -0.342,-1.42 0,-0.54 0.117,-1.02 0.352,-1.43 0.24,-0.41 0.567,-0.73 0.978,-0.95 0.412,-0.23 0.872,-0.34 1.378,-0.34 0.507,0 0.967,0.11 1.378,0.34 0.412,0.22 0.735,0.54 0.97,0.95 0.24,0.41 0.361,0.89 0.361,1.43 0,0.54 -0.124,1.01 -0.371,1.42 -0.241,0.41 -0.57,0.73 -0.988,0.96 -0.412,0.22 -0.874,0.34 -1.388,0.34 z m 0,-1.16 c 0.241,0 0.466,-0.06 0.675,-0.17 0.215,-0.13 0.387,-0.3 0.513,-0.54 0.127,-0.23 0.19,-0.52 0.19,-0.85 0,-0.5 -0.133,-0.89 -0.399,-1.15 -0.26,-0.27 -0.58,-0.41 -0.96,-0.41 -0.38,0 -0.7,0.14 -0.959,0.41 -0.254,0.26 -0.381,0.65 -0.381,1.15 0,0.5 0.124,0.88 0.371,1.16 0.253,0.26 0.57,0.4 0.95,0.4 z"
     fill="#ffffff"
     id="path88"
     style="opacity:0.98" />
  <g
     filter="url(#filter2_d_1_1147)"
     id="g106"
     style="opacity:0.98;filter:url(#filter2_d_1_1147-7)"
     transform="translate(4.4309627,-1700.1036)">
    <rect
       x="12.7439"
       y="1863.74"
       width="163.51199"
       height="48.512199"
       rx="5.2074699"
       fill="#ffffff"
       stroke="#f5f7fc"
       stroke-width="1.48785"
       id="rect90" />
    <rect
       x="27.699301"
       y="1896.72"
       width="25.4585"
       height="5.94031"
       rx="2.97016"
       fill="#e1e7ee"
       id="rect92" />
    <rect
       x="102.803"
       y="1896.72"
       width="8.91047"
       height="11.032"
       rx="2.9756899"
       fill="#f0f3f9"
       id="rect94" />
    <rect
       x="114.683"
       y="1886.96"
       width="8.91047"
       height="20.7911"
       rx="2.9756899"
       fill="#f0f3f9"
       id="rect96" />
    <rect
       x="126.562"
       y="1893.75"
       width="8.91047"
       height="14.0022"
       rx="2.9756899"
       fill="#f0f3f9"
       id="rect98" />
    <rect
       x="138.444"
       y="1886.96"
       width="8.91047"
       height="20.7911"
       rx="2.9756899"
       fill="#eef4fc"
       id="rect100" />
    <rect
       x="150.32401"
       y="1895.02"
       width="8.91047"
       height="12.7292"
       rx="2.9756899"
       fill="#f0f3f9"
       id="rect102" />
    <rect
       x="162.205"
       y="1888.24"
       width="8.91047"
       height="19.093901"
       rx="2.9756899"
       fill="#f0f3f9"
       id="rect104" />
  </g>
  <g
     filter="url(#filter3_d_1_1147)"
     id="g112"
     style="opacity:0.98;filter:url(#filter3_d_1_1147-1)"
     transform="translate(4.4309627,-1700.1036)">
    <rect
       x="202"
       y="1739"
       width="208"
       height="83.030502"
       rx="5.9418101"
       fill="#ffffff"
       id="rect108" />
    <rect
       x="202.743"
       y="1739.74"
       width="206.515"
       height="81.545097"
       rx="5.19909"
       stroke="#f5f7fc"
       stroke-width="1.48545"
       id="rect110" />
  </g>
  <path
     d="m 292.80196,66.826311 c 0,-0.86 0.699,-1.56 1.561,-1.56 h 15.199 c 0.862,0 1.561,0.7 1.561,1.56 v 3.59 c 0,0.86 -0.699,1.56 -1.561,1.56 h -4.619 c -1.109,0 -2.173,0.44 -2.959,1.22 -0.012,0.01 -0.031,0.01 -0.043,0 -0.786,-0.78 -1.849,-1.22 -2.959,-1.22 h -4.619 c -0.862,0 -1.561,-0.7 -1.561,-1.56 z"
     stroke="#dce3eb"
     stroke-width="0.742726"
     id="path114"
     style="opacity:0.98" />
  <rect
     x="224.22197"
     y="55.84626"
     width="44.480701"
     height="5.9307499"
     rx="2.96538"
     fill="#dce3eb"
     id="rect116"
     style="opacity:0.98" />
  <rect
     x="368.25598"
     y="99.046333"
     width="33.4664"
     height="4.6598802"
     rx="2.2281799"
     fill="#dce3eb"
     id="rect118"
     style="opacity:0.98" />
  <rect
     x="224.22197"
     y="64.736275"
     width="24.570299"
     height="3.8126299"
     rx="1.90631"
     fill="#dce3eb"
     id="rect120"
     style="opacity:0.98" />
  <rect
     x="383.50696"
     y="105.82636"
     width="18.2159"
     height="2.96538"
     rx="1.48269"
     fill="#dce3eb"
     id="rect122"
     style="opacity:0.98" />
  <rect
     x="297.93399"
     y="69.396309"
     width="8.0488796"
     height="1.27088"
     rx="0.63543802"
     fill="#dce3eb"
     id="rect124"
     style="opacity:0.98" />
  <rect
     x="299.20401"
     y="67.276314"
     width="4.6598802"
     height="1.6945"
     rx="0.847251"
     fill="#dce3eb"
     id="rect126"
     style="opacity:0.98" />
  <g
     filter="url(#filter4_d_1_1147)"
     id="g132"
     style="opacity:0.98;filter:url(#filter4_d_1_1147-8)"
     transform="translate(4.4309627,-1700.1036)">
    <rect
       x="220"
       y="1879"
       width="190.381"
       height="50.607601"
       rx="8.4503298"
       fill="#ffffff"
       id="rect128" />
    <rect
       x="221.056"
       y="1880.0601"
       width="188.26801"
       height="48.494999"
       rx="7.3940301"
       stroke="#f5f7fc"
       stroke-width="2.11258"
       id="rect130" />
  </g>
  <rect
     x="242.50397"
     y="211.42635"
     width="19.881599"
     height="6.6271901"
     rx="3.16887"
     fill="#dce3eb"
     id="rect134"
     style="opacity:0.98" />
  <rect
     x="242.50397"
     y="198.17635"
     width="24.0989"
     height="4.2172999"
     rx="2.10865"
     fill="#dce3eb"
     id="rect136"
     style="opacity:0.98" />
  <rect
     x="285.883"
     y="198.17635"
     width="18.0741"
     height="4.2172999"
     rx="2.10865"
     fill="#dce3eb"
     id="rect138"
     style="opacity:0.98" />
  <rect
     x="326.85101"
     y="198.17635"
     width="24.0989"
     height="4.2172999"
     rx="2.10865"
     fill="#dce3eb"
     id="rect140"
     style="opacity:0.98" />
  <rect
     x="372.63898"
     y="198.17635"
     width="12.6519"
     height="4.2172999"
     rx="2.10865"
     fill="#dce3eb"
     id="rect142"
     style="opacity:0.98" />
  <rect
     x="242.50397"
     y="194.55635"
     width="19.2791"
     height="2.4098899"
     rx="1.20494"
     fill="#dce3eb"
     id="rect144"
     style="opacity:0.98" />
  <rect
     x="285.883"
     y="194.55635"
     width="21.0865"
     height="2.4098899"
     rx="1.20494"
     fill="#dce3eb"
     id="rect146"
     style="opacity:0.98" />
  <rect
     x="326.85101"
     y="194.55635"
     width="30.726"
     height="2.4098899"
     rx="1.20494"
     fill="#dce3eb"
     id="rect148"
     style="opacity:0.98" />
  <rect
     x="372.63898"
     y="194.55635"
     width="16.8692"
     height="2.4098899"
     rx="1.20494"
     fill="#dce3eb"
     id="rect150"
     style="opacity:0.98" />
  <rect
     x="283.474"
     y="211.42635"
     width="24.0989"
     height="6.6271901"
     rx="3.16887"
     fill="#dce3eb"
     id="rect152"
     style="opacity:0.98" />
  <rect
     x="325.04401"
     y="211.42635"
     width="15.0618"
     height="6.6271901"
     rx="3.16887"
     fill="#dce3eb"
     id="rect154"
     style="opacity:0.98" />
  <rect
     x="372.63898"
     y="211.42635"
     width="19.881599"
     height="6.6271901"
     rx="3.16887"
     fill="#dce3eb"
     id="rect156"
     style="opacity:0.98" />
</svg>
